<svg width="31" height="29" viewBox="0 0 31 29" fill="none" xmlns="http://www.w3.org/2000/svg">
<path d="M0 11C0 5.47715 4.47715 1 10 1H21C26.5228 1 31 5.47715 31 11V15.9822V18.7795C31 24.3024 26.5228 28.7795 21 28.7795H15.5H10C4.47715 28.7795 0 24.3024 0 18.7795V11Z" fill="black" fill-opacity="0.78"/>
<path d="M22.6 20.804C22.328 20.804 22.096 20.716 21.904 20.54C21.72 20.364 21.628 20.144 21.628 19.88C21.628 19.608 21.72 19.388 21.904 19.22C22.096 19.044 22.328 18.956 22.6 18.956C22.88 18.956 23.112 19.044 23.296 19.22C23.48 19.388 23.572 19.608 23.572 19.88C23.572 20.144 23.48 20.364 23.296 20.54C23.112 20.716 22.88 20.804 22.6 20.804ZM22.6 25.124C22.328 25.124 22.096 25.036 21.904 24.86C21.72 24.684 21.628 24.464 21.628 24.2C21.628 23.928 21.72 23.708 21.904 23.54C22.096 23.364 22.328 23.276 22.6 23.276C22.88 23.276 23.112 23.364 23.296 23.54C23.48 23.708 23.572 23.928 23.572 24.2C23.572 24.464 23.48 24.684 23.296 24.86C23.112 25.036 22.88 25.124 22.6 25.124ZM19.84 22.664V21.416H25.36V22.664H19.84Z" fill="#FF0303"/>
<line x1="15.25" y1="1" x2="15.25" y2="28.7795" stroke="white" stroke-width="0.5"/>
<path d="M31 15.3602L0 15.3602" stroke="white" stroke-width="0.5"/>
<path d="M7.952 10.872V8.664H5.84V7.416H7.952V5.208H9.248V7.416H11.36V8.664H9.248V10.872H7.952Z" fill="#EBFF00"/>
<path d="M19.84 8.664V7.416H25.36V8.664H19.84Z" fill="#0066FF"/>
<path d="M5.37 24L7.09 21.42L5.48 19.04H7.06L7.57 19.84C7.65 19.98 7.73667 20.1233 7.83 20.27C7.92333 20.41 8.01 20.55 8.09 20.69H8.13C8.19 20.55 8.25667 20.4067 8.33 20.26C8.41 20.1133 8.48 19.9733 8.54 19.84L8.98 19.04H10.52L8.9 21.59L10.62 24H9.04L8.47 23.18C8.37667 23.04 8.28 22.8967 8.18 22.75C8.08667 22.6033 7.99333 22.46 7.9 22.32H7.86C7.78667 22.46 7.71 22.6033 7.63 22.75C7.55 22.89 7.47333 23.0333 7.4 23.18L6.91 24H5.37Z" fill="#33FF00"/>
</svg>


