<svg width="282" height="50" viewBox="0 0 282 50" fill="none" xmlns="http://www.w3.org/2000/svg">
<path d="M0 22C0 16.4771 4.47715 12 10 12H21C26.5228 12 31 16.4772 31 22V26.9822V29.7795C31 35.3024 26.5228 39.7795 21 39.7795H15.5H10C4.47715 39.7795 0 35.3024 0 29.7795V22Z" fill="black" fill-opacity="0.51"/>
<path d="M22.6 31.804C22.328 31.804 22.096 31.716 21.904 31.54C21.72 31.364 21.628 31.144 21.628 30.88C21.628 30.608 21.72 30.388 21.904 30.22C22.096 30.044 22.328 29.956 22.6 29.956C22.88 29.956 23.112 30.044 23.296 30.22C23.48 30.388 23.572 30.608 23.572 30.88C23.572 31.144 23.48 31.364 23.296 31.54C23.112 31.716 22.88 31.804 22.6 31.804ZM22.6 36.124C22.328 36.124 22.096 36.036 21.904 35.86C21.72 35.684 21.628 35.464 21.628 35.2C21.628 34.928 21.72 34.708 21.904 34.54C22.096 34.364 22.328 34.276 22.6 34.276C22.88 34.276 23.112 34.364 23.296 34.54C23.48 34.708 23.572 34.928 23.572 35.2C23.572 35.464 23.48 35.684 23.296 35.86C23.112 36.036 22.88 36.124 22.6 36.124ZM19.84 33.664V32.416H25.36V33.664H19.84Z" fill="#FF0303"/>
<line x1="15.25" y1="12" x2="15.25" y2="39.7795" stroke="white" stroke-width="0.5"/>
<path d="M31 26.3602L0 26.3602" stroke="white" stroke-width="0.5"/>
<path d="M7.952 21.872V19.664H5.84V18.416H7.952V16.208H9.248V18.416H11.36V19.664H9.248V21.872H7.952Z" fill="#EBFF00"/>
<path d="M19.84 19.664V18.416H25.36V19.664H19.84Z" fill="#0066FF"/>
<path d="M5.37 35L7.09 32.42L5.48 30.04H7.06L7.57 30.84C7.65 30.98 7.73667 31.1233 7.83 31.27C7.92333 31.41 8.01 31.55 8.09 31.69H8.13C8.19 31.55 8.25667 31.4067 8.33 31.26C8.41 31.1133 8.48 30.9733 8.54 30.84L8.98 30.04H10.52L8.9 32.59L10.62 35H9.04L8.47 34.18C8.37667 34.04 8.28 33.8967 8.18 33.75C8.08667 33.6033 7.99333 33.46 7.9 33.32H7.86C7.78667 33.46 7.71 33.6033 7.63 33.75C7.55 33.89 7.47333 34.0333 7.4 34.18L6.91 35H5.37Z" fill="#33FF00"/>
<path d="M56.24 39.48C54.6133 39.48 53.0667 39.2 51.6 38.64C50.16 38.08 48.88 37.24 47.76 36.12C46.64 34.9733 45.76 33.5733 45.12 31.92C44.48 30.24 44.16 28.3067 44.16 26.12C44.16 23.24 44.7067 20.7867 45.8 18.76C46.92 16.7067 48.4133 15.1467 50.28 14.08C52.1733 12.9867 54.28 12.44 56.6 12.44C58.2533 12.44 59.7467 12.7867 61.08 13.48C62.4133 14.1467 63.52 14.9067 64.4 15.76L61.16 19.4C60.5467 18.8133 59.8667 18.36 59.12 18.04C58.4 17.6933 57.56 17.52 56.6 17.52C55.3733 17.52 54.28 17.8667 53.32 18.56C52.36 19.2267 51.6 20.1867 51.04 21.44C50.48 22.6933 50.2 24.1867 50.2 25.92C50.2 27.7067 50.48 29.24 51.04 30.52C51.6 31.7733 52.3733 32.7333 53.36 33.4C54.3733 34.0667 55.5333 34.4 56.84 34.4C57.8 34.4 58.6667 34.1867 59.44 33.76C60.2133 33.3333 60.92 32.7733 61.56 32.08L64.8 35.64C63.7333 36.8933 62.48 37.8533 61.04 38.52C59.6 39.16 58 39.48 56.24 39.48ZM74.9444 39.48C73.611 39.48 72.451 39.2133 71.4644 38.68C70.5044 38.1467 69.7577 37.4267 69.2244 36.52C68.691 35.6133 68.4244 34.6 68.4244 33.48C68.4244 31.2667 69.4244 29.5733 71.4244 28.4C73.451 27.2267 76.811 26.5067 81.5044 26.24C81.4244 25.6267 81.2244 25.1067 80.9044 24.68C80.5844 24.2533 80.1177 23.9333 79.5044 23.72C78.9177 23.48 78.171 23.36 77.2644 23.36C76.6244 23.36 75.9844 23.44 75.3444 23.6C74.7044 23.7333 74.0377 23.9467 73.3444 24.24C72.6777 24.5067 71.971 24.8267 71.2244 25.2L69.1444 21.36C70.051 20.8267 70.9977 20.36 71.9844 19.96C72.9977 19.56 74.0377 19.2533 75.1044 19.04C76.1977 18.8 77.3044 18.68 78.4244 18.68C80.291 18.68 81.891 19.0133 83.2244 19.68C84.5577 20.32 85.5844 21.3067 86.3044 22.64C87.0244 23.9467 87.3844 25.6133 87.3844 27.64V39H82.5844L82.1444 36.76H81.9844C80.9977 37.5067 79.9044 38.1467 78.7044 38.68C77.5044 39.2133 76.251 39.48 74.9444 39.48ZM76.8244 34.92C77.7044 34.92 78.531 34.7467 79.3044 34.4C80.0777 34.0267 80.811 33.5733 81.5044 33.04V29.76C79.5577 29.8667 78.0377 30.0667 76.9444 30.36C75.8777 30.6533 75.131 31.0267 74.7044 31.48C74.2777 31.9333 74.0644 32.4533 74.0644 33.04C74.0644 33.44 74.171 33.7867 74.3844 34.08C74.6244 34.3733 74.9444 34.5867 75.3444 34.72C75.771 34.8533 76.2644 34.92 76.8244 34.92ZM105.769 39.48C103.289 39.48 101.409 38.7333 100.129 37.24C98.8488 35.7467 98.2088 33.7467 98.2088 31.24V15.6H92.0088V11H104.089V31.48C104.089 32.7067 104.422 33.56 105.089 34.04C105.755 34.4933 106.489 34.72 107.289 34.72C107.769 34.72 108.249 34.6667 108.729 34.56C109.235 34.4533 109.795 34.2933 110.409 34.08L111.689 38.4C110.675 38.72 109.742 38.9733 108.889 39.16C108.062 39.3733 107.022 39.48 105.769 39.48ZM127.673 39.48C125.593 39.48 123.713 39.08 122.033 38.28C120.38 37.4533 119.06 36.2667 118.073 34.72C117.113 33.1467 116.633 31.2667 116.633 29.08C116.633 26.8933 117.166 25.0267 118.233 23.48C119.3 21.9067 120.7 20.72 122.433 19.92C124.193 19.0933 126.086 18.68 128.113 18.68C129.686 18.68 131.113 18.9333 132.393 19.44C133.673 19.92 134.726 20.56 135.553 21.36L132.833 25C132.06 24.4667 131.313 24.08 130.593 23.84C129.9 23.5733 129.18 23.44 128.433 23.44C127.313 23.44 126.313 23.6667 125.433 24.12C124.553 24.5733 123.873 25.2267 123.393 26.08C122.913 26.9333 122.673 27.9333 122.673 29.08C122.673 30.2267 122.9 31.2267 123.353 32.08C123.833 32.9333 124.486 33.5867 125.313 34.04C126.166 34.4933 127.14 34.72 128.233 34.72C129.273 34.72 130.22 34.5333 131.073 34.16C131.953 33.7867 132.753 33.3467 133.473 32.84L135.833 36.56C134.66 37.5467 133.34 38.28 131.873 38.76C130.433 39.24 129.033 39.48 127.673 39.48ZM146.858 39.48C144.591 39.48 142.951 38.76 141.938 37.32C140.924 35.88 140.418 33.9067 140.418 31.4V19.16H146.298V30.64C146.298 31.9733 146.498 32.9467 146.898 33.56C147.324 34.1733 148.084 34.48 149.178 34.48C149.924 34.48 150.591 34.32 151.178 34C151.764 33.68 152.391 33.08 153.058 32.2V19.16H158.938V39H154.138L153.698 36.16H153.538C152.658 37.1467 151.684 37.9467 150.618 38.56C149.551 39.1733 148.298 39.48 146.858 39.48ZM177.722 39.48C175.242 39.48 173.362 38.7333 172.082 37.24C170.802 35.7467 170.162 33.7467 170.162 31.24V15.6H163.962V11H176.042V31.48C176.042 32.7067 176.375 33.56 177.042 34.04C177.709 34.4933 178.442 34.72 179.242 34.72C179.722 34.72 180.202 34.6667 180.682 34.56C181.189 34.4533 181.749 34.2933 182.362 34.08L183.642 38.4C182.629 38.72 181.695 38.9733 180.842 39.16C180.015 39.3733 178.975 39.48 177.722 39.48ZM194.866 39.48C193.533 39.48 192.373 39.2133 191.386 38.68C190.426 38.1467 189.68 37.4267 189.146 36.52C188.613 35.6133 188.346 34.6 188.346 33.48C188.346 31.2667 189.346 29.5733 191.346 28.4C193.373 27.2267 196.733 26.5067 201.426 26.24C201.346 25.6267 201.146 25.1067 200.826 24.68C200.506 24.2533 200.04 23.9333 199.426 23.72C198.84 23.48 198.093 23.36 197.186 23.36C196.546 23.36 195.906 23.44 195.266 23.6C194.626 23.7333 193.96 23.9467 193.266 24.24C192.6 24.5067 191.893 24.8267 191.146 25.2L189.066 21.36C189.973 20.8267 190.92 20.36 191.906 19.96C192.92 19.56 193.96 19.2533 195.026 19.04C196.12 18.8 197.226 18.68 198.346 18.68C200.213 18.68 201.813 19.0133 203.146 19.68C204.48 20.32 205.506 21.3067 206.226 22.64C206.946 23.9467 207.306 25.6133 207.306 27.64V39H202.506L202.066 36.76H201.906C200.92 37.5067 199.826 38.1467 198.626 38.68C197.426 39.2133 196.173 39.48 194.866 39.48ZM196.746 34.92C197.626 34.92 198.453 34.7467 199.226 34.4C200 34.0267 200.733 33.5733 201.426 33.04V29.76C199.48 29.8667 197.96 30.0667 196.866 30.36C195.8 30.6533 195.053 31.0267 194.626 31.48C194.2 31.9333 193.986 32.4533 193.986 33.04C193.986 33.44 194.093 33.7867 194.306 34.08C194.546 34.3733 194.866 34.5867 195.266 34.72C195.693 34.8533 196.186 34.92 196.746 34.92ZM225.411 39.48C223.304 39.48 221.624 39.12 220.371 38.4C219.144 37.6533 218.251 36.6267 217.691 35.32C217.131 34.0133 216.851 32.4933 216.851 30.76V23.76H211.891V19.4L217.131 19.16L217.891 13.08H222.731V19.16H231.131V23.76H222.731V30.72C222.731 31.7067 222.877 32.5067 223.171 33.12C223.464 33.7333 223.917 34.1867 224.531 34.48C225.144 34.7467 225.931 34.88 226.891 34.88C227.664 34.88 228.371 34.8133 229.011 34.68C229.651 34.5467 230.264 34.3733 230.851 34.16L231.891 38.4C231.011 38.6667 230.037 38.9067 228.971 39.12C227.931 39.36 226.744 39.48 225.411 39.48ZM245.875 39.48C244.142 39.48 242.502 39.08 240.955 38.28C239.408 37.4533 238.155 36.2667 237.195 34.72C236.235 33.1467 235.755 31.2667 235.755 29.08C235.755 26.8933 236.235 25.0267 237.195 23.48C238.155 21.9067 239.408 20.72 240.955 19.92C242.502 19.0933 244.142 18.68 245.875 18.68C247.608 18.68 249.248 19.0933 250.795 19.92C252.342 20.72 253.595 21.9067 254.555 23.48C255.515 25.0267 255.995 26.8933 255.995 29.08C255.995 31.2667 255.515 33.1467 254.555 34.72C253.595 36.2667 252.342 37.4533 250.795 38.28C249.248 39.08 247.608 39.48 245.875 39.48ZM245.875 34.72C246.782 34.72 247.528 34.4933 248.115 34.04C248.728 33.5867 249.182 32.9333 249.475 32.08C249.795 31.2267 249.955 30.2267 249.955 29.08C249.955 27.9333 249.795 26.9333 249.475 26.08C249.182 25.2267 248.728 24.5733 248.115 24.12C247.528 23.6667 246.782 23.44 245.875 23.44C244.968 23.44 244.208 23.6667 243.595 24.12C243.008 24.5733 242.555 25.2267 242.235 26.08C241.942 26.9333 241.795 27.9333 241.795 29.08C241.795 30.2267 241.942 31.2267 242.235 32.08C242.555 32.9333 243.008 33.5867 243.595 34.04C244.208 34.4933 244.968 34.72 245.875 34.72ZM262.499 39V19.16H267.299L267.779 23.48H267.899C268.886 21.8533 270.073 20.6533 271.459 19.88C272.873 19.08 274.366 18.68 275.939 18.68C276.819 18.68 277.526 18.7467 278.059 18.88C278.619 19.0133 279.193 19.2133 279.779 19.48L278.579 24.4C277.966 24.2133 277.406 24.08 276.899 24C276.419 23.8933 275.806 23.84 275.059 23.84C273.833 23.84 272.619 24.2 271.419 24.92C270.246 25.64 269.233 26.8933 268.379 28.68V39H262.499Z" fill="white"/>
</svg>

